<svg xmlns="http://www.w3.org/2000/svg" xmlns:xlink="http://www.w3.org/1999/xlink" fill="none" version="1.1" width="16" height="13" viewBox="0 0 16 13"><g transform="matrix(1,0,0,-1,0,26)"><path d="M0.774194,26Q0.0645161,25.9375,0,25.25L0,23.75Q0.0645161,23.0625,0.774194,23L2.32258,23Q3.03226,23.0625,3.09677,23.75L3.09677,25.25Q3.03226,25.9375,2.32258,26L0.774194,26ZM5.67742,25.5Q5.22581,25.5,4.93548,25.2187Q4.64516,24.9375,4.64516,24.5Q4.64516,24.0625,4.93548,23.7812Q5.22581,23.5,5.67742,23.5L14.9677,23.5Q15.4194,23.5,15.7097,23.7812Q16,24.0625,16,24.5Q16,24.9375,15.7097,25.2187Q15.4194,25.5,14.9677,25.5L5.67742,25.5ZM5.67742,20.5Q5.22581,20.5,4.93548,20.21875Q4.64516,19.9375,4.64516,19.5Q4.64516,19.0625,4.93548,18.78125Q5.22581,18.5,5.67742,18.5L14.9677,18.5Q15.4194,18.5,15.7097,18.78125Q16,19.0625,16,19.5Q16,19.9375,15.7097,20.21875Q15.4194,20.5,14.9677,20.5L5.67742,20.5ZM5.67742,15.5Q5.22581,15.5,4.93548,15.21875Q4.64516,14.9375,4.64516,14.5Q4.64516,14.0625,4.93548,13.78125Q5.22581,13.5,5.67742,13.5L14.9677,13.5Q15.4194,13.5,15.7097,13.78125Q16,14.0625,16,14.5Q16,14.9375,15.7097,15.21875Q15.4194,15.5,14.9677,15.5L5.67742,15.5ZM0,20.25L0,18.75L0,20.25L0,18.75Q0.0645161,18.0625,0.774194,18L2.32258,18Q3.03226,18.0625,3.09677,18.75L3.09677,20.25Q3.03226,20.9375,2.32258,21L0.774194,21Q0.0645161,20.9375,0,20.25ZM0.774194,16Q0.0645161,15.9375,0,15.25L0,13.75Q0.0645161,13.0625,0.774194,13L2.32258,13Q3.03226,13.0625,3.09677,13.75L3.09677,15.25Q3.03226,15.9375,2.32258,16L0.774194,16Z" fill="#000000" fill-opacity="1" style="mix-blend-mode:passthrough"/></g></svg>