<svg xmlns="http://www.w3.org/2000/svg" xmlns:xlink="http://www.w3.org/1999/xlink" fill="none" version="1.1" width="16" height="16" viewBox="0 0 16 16"><g transform="matrix(1,0,0,-1,0,32)"><path d="M2.34375,29.6562L1.28125,30.7188L2.34375,29.6562L1.28125,30.7188Q0.90625,31.0625,0.46875,30.875Q0.03125,30.7188,0,30.1875L0,26.75Q0.0625,26.0625,0.75,26L4.1875,26Q4.71875,26.0312,4.875,26.4688Q5.0625,26.9062,4.71875,27.2812L3.75,28.25Q5.4375,29.9375,8,30Q10.5625,29.9375,12.25,28.25Q13.9375,26.5625,14,24Q13.9375,21.4375,12.25,19.75Q10.5625,18.0625,8,18Q6.0625,18.03125,4.5625,19.0625Q4.21875,19.3125,3.8125,19.25Q3.4375,19.15625,3.1875,18.8125Q2.9375,18.46875,3,18.09375Q3.09375,17.6875,3.4375,17.4375Q5.40625,16.03125,8,16Q10.25,16.03125,12.0312,17.09375Q13.8438,18.15625,14.9062,19.96875Q15.9688,21.75,16,24Q15.9688,26.25,14.9062,28.0312Q13.8438,29.8438,12.0312,30.9062Q10.25,31.9688,8,32Q6.34375,32,4.875,31.375Q3.4375,30.75,2.34375,29.6562ZM8,28Q7.3125,27.9375,7.25,27.25L7.25,24Q7.25,23.6875,7.46875,23.46875L9.71875,21.21875Q10.25,20.78125,10.7812,21.21875Q11.2188,21.75,10.7812,22.28125L8.75,24.3125L8.75,27.25Q8.6875,27.9375,8,28Z" fill="#000000" fill-opacity="1" style="mix-blend-mode:passthrough"/></g></svg>