<svg xmlns="http://www.w3.org/2000/svg" xmlns:xlink="http://www.w3.org/1999/xlink" fill="none" version="1.1" width="14" height="14.009115219116211" viewBox="0 0 14 14.009115219116211"><g transform="matrix(1,0,0,-1,0,28.018230438232422)"><path d="M13.125,27.13411521911621Q13.0977,27.70831521911621,12.5781,27.95441521911621Q12.0586,28.14581521911621,11.6211,27.763015219116213L10.4453,26.559915219116213Q9.43359,25.575515219116213,8.17578,25.02861521911621Q6.89062,24.50911521911621,5.49609,24.50911521911621L5.25,24.50911521911621L1.75,24.50911521911621Q1.01172,24.48181521911621,0.519531,23.98958521911621Q0.0273438,23.49739521911621,0,22.75911521911621L0,20.13411521911621Q0.0273438,19.39583521911621,0.519531,18.90364521911621Q1.01172,18.41145521911621,1.75,18.38411521911621L1.75,14.884115219116211Q1.75,14.501303219116211,1.99609,14.25520921911621Q2.24219,14.009115219116211,2.625,14.009115219116211L4.375,14.009115219116211Q4.75781,14.009115219116211,5.00391,14.25520921911621Q5.25,14.501303219116211,5.25,14.884115219116211L5.25,18.38411521911621L5.49609,18.38411521911621Q6.89062,18.38411521911621,8.17578,17.83723521911621Q9.43359,17.31770521911621,10.4453,16.33333521911621L11.6211,15.130205219116212Q12.0586,14.747396219116212,12.5781,14.938803219116211Q13.0977,15.18489521911621,13.125,15.759115219116211L13.125,19.805995219116213Q13.5078,19.99739521911621,13.7539,20.43489521911621Q14,20.87239521911621,14,21.44661521911621Q14,22.02083521911621,13.7539,22.45833521911621Q13.5078,22.92317521911621,13.125,23.08723521911621L13.125,27.13411521911621ZM11.375,25.02861521911621L11.375,21.44661521911621L11.375,25.02861521911621L11.375,21.44661521911621L11.375,17.86458521911621Q10.1445,18.95833521911621,8.64062,19.53255521911621Q7.13672,20.13411521911621,5.49609,20.13411521911621L5.25,20.13411521911621L5.25,22.75911521911621L5.49609,22.75911521911621Q7.13672,22.75911521911621,8.64062,23.36067521911621Q10.1445,23.93489521911621,11.375,25.02861521911621Z" fill="#4B5563" fill-opacity="1" style="mix-blend-mode:passthrough"/></g></svg>