<svg xmlns="http://www.w3.org/2000/svg" xmlns:xlink="http://www.w3.org/1999/xlink" fill="none" version="1.1" width="14.002975463867188" height="16" viewBox="0 0 14.002975463867188 16"><g transform="matrix(1,0,0,-1,0,32)"><path d="M7.00149,32Q6.56399,32,6.28274,31.7188Q6.00149,31.4375,6.00149,31L6.00149,30.4062Q4.25149,30.0312,3.15774,28.6875Q2.03274,27.3438,2.00149,25.5L2.00149,24.90625Q1.97024,22.65625,0.501488,20.9375L0.251488,20.65625Q-0.154762,20.1875,0.0952381,19.59375Q0.376488,19.03125,1.00149,19L13.0015,19Q13.6265,19.03125,13.9077,19.59375Q14.1577,20.1875,13.7515,20.65625L13.5327,20.9375Q12.0327,22.625,12.0015,24.90625L12.0015,25.5Q11.9702,27.3438,10.8452,28.6875Q9.75149,30.0312,8.00149,30.4062L8.00149,31Q8.00149,31.4375,7.72024,31.7188Q7.43899,32,7.00149,32ZM8.40774,16.59375Q9.00149,17.1875,9.00149,18L7.00149,18L5.00149,18Q5.00149,17.1875,5.59524,16.59375Q6.18899,16,7.00149,16Q7.81399,16,8.40774,16.59375Z" fill="#4B5563" fill-opacity="1" style="mix-blend-mode:passthrough"/></g></svg>