<svg xmlns="http://www.w3.org/2000/svg" xmlns:xlink="http://www.w3.org/1999/xlink" fill="none" version="1.1" width="10.5" height="14" viewBox="0 0 10.5 14"><g transform="matrix(1,0,0,-1,0,28)"><path d="M1.75,28Q1.01172,27.9727,0.519531,27.4805Q0.0273438,26.988300000000002,0,26.25L0,15.75Q0.0273438,15.01172,0.519531,14.519531Q1.01172,14.0273438,1.75,14L8.75,14Q9.48828,14.0273438,9.98047,14.519531Q10.4727,15.01172,10.5,15.75L10.5,23.625L7,23.625Q6.61719,23.625,6.37109,23.871090000000002Q6.125,24.1172,6.125,24.5L6.125,28L1.75,28ZM7,28L7,24.5L7,28L7,24.5L10.5,24.5L7,28ZM3.0625,21L7.4375,21L3.0625,21L7.4375,21Q7.84766,20.97266,7.875,20.5625Q7.84766,20.15234,7.4375,20.125L3.0625,20.125Q2.65234,20.15234,2.625,20.5625Q2.65234,20.97266,3.0625,21ZM3.0625,19.25L7.4375,19.25L3.0625,19.25L7.4375,19.25Q7.84766,19.22266,7.875,18.8125Q7.84766,18.40234,7.4375,18.375L3.0625,18.375Q2.65234,18.40234,2.625,18.8125Q2.65234,19.22266,3.0625,19.25ZM3.0625,17.5L7.4375,17.5L3.0625,17.5L7.4375,17.5Q7.84766,17.47266,7.875,17.0625Q7.84766,16.65234,7.4375,16.625L3.0625,16.625Q2.65234,16.65234,2.625,17.0625Q2.65234,17.47266,3.0625,17.5Z" fill="#4B5563" fill-opacity="1" style="mix-blend-mode:passthrough"/></g></svg>