<svg xmlns="http://www.w3.org/2000/svg" xmlns:xlink="http://www.w3.org/1999/xlink" fill="none" version="1.1" width="14" height="12.25" viewBox="0 0 14 12.25"><g transform="matrix(1,0,0,-1,0,24.5)"><path d="M1.75,23.625Q1.75,24.0078,1.50391,24.2539Q1.25781,24.5,0.875,24.5Q0.492188,24.5,0.246094,24.2539Q0,24.0078,0,23.625L0,14.4375Q0.0273438,13.50781,0.628906,12.878906Q1.25781,12.2773438,2.1875,12.25L13.125,12.25Q13.5078,12.25,13.7539,12.496094Q14,12.742188,14,13.125Q14,13.50781,13.7539,13.75391Q13.5078,14,13.125,14L2.1875,14Q1.77734,14.02734,1.75,14.4375L1.75,23.625ZM12.8789,21.246090000000002Q13.125,21.51953,13.125,21.875Q13.125,22.23047,12.8789,22.5039Q12.6055,22.75,12.25,22.75Q11.8945,22.75,11.6211,22.5039L8.75,19.60547L7.19141,21.191409999999998Q6.91797,21.4375,6.5625,21.4375Q6.20703,21.4375,5.93359,21.191409999999998L2.87109,18.12891Q2.625,17.85547,2.625,17.5Q2.625,17.14453,2.87109,16.87109Q3.14453,16.625,3.5,16.625Q3.85547,16.625,4.12891,16.87109L6.5625,19.33203L8.12109,17.74609Q8.39453,17.5,8.75,17.5Q9.10547,17.5,9.37891,17.74609L12.8789,21.246090000000002Z" fill="#000000" fill-opacity="1" style="mix-blend-mode:passthrough"/></g></svg>