<svg xmlns="http://www.w3.org/2000/svg" xmlns:xlink="http://www.w3.org/1999/xlink" fill="none" version="1.1" width="13.120097160339355" height="13.917969703674316" viewBox="0 0 13.120097160339355 13.917969703674316"><g transform="matrix(1,0,0,-1,0,27.835939407348633)"><path d="M6.56005,27.835969703674316Q6.75134,27.835969703674316,6.91531,27.75386970367432L12.0802,25.56636970367432Q12.5448,25.374969703674317,12.8181,24.964869703674317Q13.1187,24.554669703674314,13.1187,24.007769703674317Q13.146,22.613279703674316,12.6541,20.726559703674315Q12.1622,18.839849703674318,10.8778,17.062499703674316Q9.62073,15.257809703674317,7.27057,14.082032703674317Q6.56005,13.753906703674316,5.84953,14.082032703674317Q3.49936,15.257809703674317,2.2423,17.062499703674316Q0.957902,18.839849703674318,0.466006,20.726559703674315Q-0.0258893,22.613279703674316,0.00143829,24.007769703674317Q0.00143829,24.554669703674314,0.302041,24.964869703674317Q0.575317,25.374969703674317,1.03988,25.56636970367432L6.20479,27.75386970367432Q6.36876,27.835969703674316,6.56005,27.835969703674316ZM6.56005,26.00386970367432L6.56005,15.667969703674316L6.56005,26.00386970367432L6.56005,15.667969703674316Q8.41832,16.624999703674316,9.4841,18.101559703674315Q10.5225,19.578129703674318,10.9598,21.136719703674316Q11.3697,22.722659703674317,11.3697,23.980469703674316L6.56005,26.00386970367432Z" fill="#4B5563" fill-opacity="1" style="mix-blend-mode:passthrough"/></g></svg>