<svg xmlns="http://www.w3.org/2000/svg" xmlns:xlink="http://www.w3.org/1999/xlink" fill="none" version="1.1" width="14" height="14" viewBox="0 0 14 14"><g transform="matrix(1,0,0,-1,0,28)"><path d="M7,26.6875Q4.59375,26.6328,2.98047,25.0195Q1.36719,23.40625,1.3125,21L1.3125,19.90625Q1.25781,19.30469,0.65625,19.25Q0.0546875,19.30469,0,19.90625L0,21Q0.0273438,22.96875,0.957031,24.5273Q1.88672,26.113300000000002,3.47266,27.043Q5.03125,27.9727,7,28Q8.96875,27.9727,10.5273,27.043Q12.1133,26.113300000000002,13.043,24.5273Q13.9727,22.96875,14,21L14,17.0625Q13.9727,16.05078,13.2891,15.36719Q12.6055,14.683594,11.5938,14.65625L8.58594,14.65625Q8.20312,14.0273438,7.4375,14L6.5625,14Q6.01562,14.0273438,5.63281,14.382812Q5.27734,14.765625,5.25,15.3125Q5.27734,15.85938,5.63281,16.24219Q6.01562,16.59766,6.5625,16.625L7.4375,16.625Q8.20312,16.59766,8.58594,15.96875L11.5938,15.96875Q12.0586,15.96875,12.3594,16.29688Q12.6875,16.59766,12.6875,17.0625L12.6875,21Q12.6328,23.40625,11.0195,25.0195Q9.40625,26.6328,7,26.6875ZM3.9375,22.3125L4.375,22.3125L3.9375,22.3125L4.375,22.3125Q4.75781,22.3125,5.00391,22.066409999999998Q5.25,21.82031,5.25,21.4375L5.25,18.375Q5.25,17.99219,5.00391,17.74609Q4.75781,17.5,4.375,17.5L3.9375,17.5Q3.19922,17.52734,2.70703,18.01953Q2.21484,18.51172,2.1875,19.25L2.1875,20.5625Q2.21484,21.30078,2.70703,21.79297Q3.19922,22.285159999999998,3.9375,22.3125ZM10.0625,22.3125Q10.8008,22.285159999999998,11.293,21.79297Q11.7852,21.30078,11.8125,20.5625L11.8125,19.25Q11.7852,18.51172,11.293,18.01953Q10.8008,17.52734,10.0625,17.5L9.625,17.5Q9.24219,17.5,8.99609,17.74609Q8.75,17.99219,8.75,18.375L8.75,21.4375Q8.75,21.82031,8.99609,22.066409999999998Q9.24219,22.3125,9.625,22.3125L10.0625,22.3125Z" fill="#4B5563" fill-opacity="1" style="mix-blend-mode:passthrough"/></g></svg>