<svg xmlns="http://www.w3.org/2000/svg" xmlns:xlink="http://www.w3.org/1999/xlink" fill="none" version="1.1" width="16" height="13.677083015441895" viewBox="0 0 16 13.677083015441895"><g transform="matrix(1,0,0,-1,0,27.35416603088379)"><path d="M7.125,14.020833015441895L1.5,19.302083015441895L7.125,14.020833015441895L1.5,19.302083015441895Q1.28125,19.458333015441895,1.125,19.677083015441895L3.84375,19.677083015441895Q4.96875,19.739583015441895,5.4375,20.739583015441895L5.78125,21.552083015441895L7.3125,18.114583015441895Q7.53125,17.708333015441895,8,17.677083015441895Q8.4375,17.677083015441895,8.6875,18.083333015441895L10,20.739583015441895L10.0625,20.645833015441895Q10.5625,19.708333015441895,11.625,19.677083015441895L14.875,19.677083015441895Q14.7188,19.458333015441895,14.5,19.270833015441895L8.875,14.020833015441895Q8.5,13.677083015441895,8,13.677083015441895Q7.5,13.677083015441895,7.125,14.020833015441895ZM15.75,21.177083015441895L11.625,21.177083015441895L15.75,21.177083015441895L11.625,21.177083015441895Q11.4688,21.177083015441895,11.4062,21.302083015441895L10.6562,22.770833015441895Q10.4375,23.145833015441895,10,23.177083015441895Q9.53125,23.145833015441895,9.3125,22.770833015441895L8.03125,20.177083015441895L6.4375,23.739583015441895Q6.21875,24.177083015441895,5.75,24.177083015441895Q5.25,24.145883015441896,5.0625,23.708283015441893L4.0625,21.333333015441895Q4,21.177083015441895,3.84375,21.177083015441895L0.5,21.177083015441895Q0.375,21.177083015441895,0.28125,21.145833015441895Q0,21.895833015441895,0,22.708333015441895L0,22.895833015441895Q0.03125,24.583283015441893,1.0625,25.770883015441896Q2.09375,26.989583015441895,3.71875,27.302083015441895Q4.8125,27.458283015441893,5.84375,27.145883015441896Q6.84375,26.833283015441893,7.625,26.052083015441895L8,25.677083015441895L8.375,26.052083015441895Q9.15625,26.833283015441893,10.1562,27.145883015441896Q11.1875,27.458283015441893,12.2812,27.302083015441895Q13.9062,26.989583015441895,14.9375,25.770883015441896Q15.9688,24.583283015441893,16,22.895833015441895L16,22.708333015441895Q16,21.927083015441895,15.75,21.177083015441895Z" fill="#000000" fill-opacity="1" style="mix-blend-mode:passthrough"/></g></svg>